<?xml version="1.0" encoding="UTF-8" standalone="no"?>
<svg width="512px" height="512px" viewBox="0 0 512 512" version="1.1" xmlns="http://www.w3.org/2000/svg" xmlns:xlink="http://www.w3.org/1999/xlink">
  <title>Icon1024</title>
  <defs>
    <filter id="dropshadow">
      <feGaussianBlur in="SourceAlpha" stdDeviation="14"/>
      <feOffset dx="-2" dy="10"/>
      <feComponentTransfer>
        <feFuncA type="linear" slope="0.4"/>
      </feComponentTransfer>
      <feMerge>
        <feMergeNode/>
        <feMergeNode in="SourceGraphic"/>
      </feMerge>
    </filter>
  </defs>
  <g id="Page" stroke="none" stroke-width="1" fill="none" fill-rule="evenodd" filter="url(#dropshadow)">
    <g id="Icon1024">
      <g id="Group" transform="translate(248.416651, 241.091801) rotate(-9.000000) translate(-248.416651, -241.091801) translate(48.416651, 64.091801)">
        <g id="Icon" transform="translate(0.000000, -0.000000)">
          <path d="M199.714664,0.232421918 L399.251479,115.852167 L399.251479,353.335773 L0.1778462,353.335773 L0.1778462,115.852167 L199.714664,0.232421918 Z" id="Border" fill="#FFFFFF"></path>
          <g id="Envelope" transform="translate(15.370861, 18.826088)">
            <g id="Bottom" transform="translate(0.000000, 107.788950)">
              <path d="M0,0 L0,212.339606 L184.666939,107.78895 L0,0 Z" id="Left" fill="#47B7F2"></path>
              <path d="M184.666939,0 L184.666939,212.339606 L369.333879,107.78895 L184.666939,0 Z" id="Right" fill="#B2FDF3" transform="translate(277.000409, 106.169803) scale(-1, 1) translate(-277.000409, -106.169803) "></path>
              <path d="M184.666939,107.78895 L184.666939,212.339606 L0,212.339606 L184.666939,107.78895 Z" id="Bottom-left" fill="#48DFF5"></path>
              <path d="M369.333879,107.78895 L369.333879,212.339606 L184.666939,212.339606 L369.333879,107.78895 Z" id="Bottom-left-Copy" fill="#72FDF0" transform="translate(277.000409, 160.064278) scale(-1, 1) translate(-277.000409, -160.064278) "></path>
            </g>
            <g id="Top" transform="translate(0.000000, -0.000000)">
              <path d="M0,107.78895 L184.666939,107.78895 L184.666939,0 L0,107.78895 Z" id="Top-left" fill="#FF7283"></path>
              <path d="M184.666939,107.78895 L369.333879,107.78895 L369.333879,0 L184.666939,107.78895 Z" id="Top-right" fill="#FFAB99" transform="translate(277.000409, 53.894475) scale(-1, 1) translate(-277.000409, -53.894475) "></path>
              <path d="M0,215.5779 L184.666939,215.5779 L184.666939,107.78895 L0,215.5779 Z" id="Bottom-left" fill="#FF3D56" transform="translate(92.333470, 161.683425) scale(1, -1) translate(-92.333470, -161.683425) "></path>
              <path d="M184.666939,215.5779 L369.333879,215.5779 L369.333879,107.78895 L184.666939,215.5779 Z" id="Bottom-right" fill="#FF8064" transform="translate(277.000409, 161.683425) scale(-1, -1) translate(-277.000409, -161.683425) "></path>
            </g>
          </g>
        </g>
      </g>
    </g>
  </g>
</svg>
