<?xml version="1.0" encoding="UTF-8" standalone="no"?>
<svg width="1024px" height="1024px" viewBox="0 0 1024 1024" version="1.1" xmlns="http://www.w3.org/2000/svg" xmlns:xlink="http://www.w3.org/1999/xlink">
    <title>Polymail.app alternative icon</title>
    <defs></defs>
    <g id="Page-1" stroke="none" stroke-width="1" fill="none" fill-rule="evenodd">
        <g id="TIlted-Rect">
            <g id="Icon" transform="translate(505.279231, 483.384623) rotate(-9.000000) translate(-505.279231, -483.384623) translate(76.279231, 101.384623)">
                <path d="M428.540872,-2.27373675e-13 L857.081743,254.362264 L857.081743,763.128711 L5.64986537e-14,763.128711 L5.68434189e-14,254.362264 L428.540872,-2.27373675e-13 Z" id="Border" fill="#FFFFFF"></path>
                <g id="Envelope" transform="translate(70.944126, 83.407284)">
                    <g id="Bottom" transform="translate(0.000000, 208.206492)">
                        <path d="M0,0 L0,410.157853 L357.596745,208.206492 L0,0 Z" id="Left" fill="#47B7F2"></path>
                        <path d="M357.596745,0 L357.596745,410.157853 L715.19349,208.206492 L357.596745,0 Z" id="Right" fill="#B2FDF3" transform="translate(536.395118, 205.078927) scale(-1, 1) translate(-536.395118, -205.078927) "></path>
                        <path d="M357.596745,208.206492 L357.596745,410.157853 L0,410.157853 L357.596745,208.206492 Z" id="Bottom-left" fill="#48DFF5"></path>
                        <path d="M715.19349,208.206492 L715.19349,410.157853 L357.596745,410.157853 L715.19349,208.206492 Z" id="Bottom-left-Copy" fill="#72FDF0" transform="translate(536.395118, 309.182172) scale(-1, 1) translate(-536.395118, -309.182172) "></path>
                    </g>
                    <g id="Top">
                        <path d="M0,208.206492 L357.596745,208.206492 L357.596745,0 L0,208.206492 Z" id="Top-left" fill="#FF7283"></path>
                        <path d="M357.596745,208.206492 L715.19349,208.206492 L715.19349,0 L357.596745,208.206492 Z" id="Top-right" fill="#FFAB99" transform="translate(536.395118, 104.103246) scale(-1, 1) translate(-536.395118, -104.103246) "></path>
                        <path d="M0,416.412984 L357.596745,416.412984 L357.596745,208.206492 L0,416.412984 Z" id="Bottom-left" fill="#FF3D56" transform="translate(178.798373, 312.309738) scale(1, -1) translate(-178.798373, -312.309738) "></path>
                        <path d="M357.596745,416.412984 L715.19349,416.412984 L715.19349,208.206492 L357.596745,416.412984 Z" id="Bottom-right" fill="#FF8064" transform="translate(536.395118, 312.309738) scale(-1, -1) translate(-536.395118, -312.309738) "></path>
                    </g>
                </g>
            </g>
        </g>
    </g>
</svg>